<svg xmlns="http://www.w3.org/2000/svg" viewBox="0 0 256 256" role="img" aria-label="DUAT intestine piece placeholder">
  <defs>
    <linearGradient id="intestineFill" x1="55" y1="48" x2="203" y2="210" gradientUnits="userSpaceOnUse">
      <stop offset="0" stop-color="#c88aff"/>
      <stop offset="1" stop-color="#6f3a9d"/>
    </linearGradient>
  </defs>
  <path d="M79 69h72c29 0 50 20 50 48 0 24-15 39-38 39H95c-12 0-20 7-20 18s8 18 20 18h78" fill="none" stroke="#f6e3a1" stroke-width="42" stroke-linecap="round" stroke-linejoin="round"/>
  <path d="M79 69h72c29 0 50 20 50 48 0 24-15 39-38 39H95c-12 0-20 7-20 18s8 18 20 18h78" fill="none" stroke="url(#intestineFill)" stroke-width="26" stroke-linecap="round" stroke-linejoin="round"/>
  <path d="M73 91h76c15 0 25 8 25 23" fill="none" stroke="#3f215f" stroke-width="8" stroke-linecap="round" opacity="0.45"/>
  <path d="M91 156h64" stroke="#3f215f" stroke-width="8" stroke-linecap="round" opacity="0.45"/>
  <path d="M182 67l20 20-20 20-20-20Z" fill="#d4af37" stroke="#3b250d" stroke-width="5"/>
  <path d="M78 69h27" stroke="#fff4c2" stroke-width="7" stroke-linecap="round" opacity="0.5"/>
</svg>
